<svg width="780" height="500" viewBox="0 0 780 500" fill="none" xmlns="http://www.w3.org/2000/svg">
  <rect width="780" height="500" fill="#09BB07"/>
  <path d="M118 168c-44 0-80 28.8-80 64.2 0 20.8 12.2 39.4 31.2 51.4l-7.8 23.4 27-14.4c8.8 2.4 18.2 3.8 27.6 3.8 44 0 80-28.8 80-64.2S162 168 118 168zm-28.8 57.6c-5.6 0-10.2-4.6-10.2-10.2s4.6-10.2 10.2-10.2 10.2 4.6 10.2 10.2-4.6 10.2-10.2 10.2zm57.6 0c-5.6 0-10.2-4.6-10.2-10.2s4.6-10.2 10.2-10.2 10.2 4.6 10.2 10.2-4.6 10.2-10.2 10.2z" fill="#fff"/>
  <path d="M262 214c-38.4 0-69.6 24-69.6 53.6 0 17.6 10.4 33.6 26.8 43.6l-6.8 20 23.2-12.4c7.6 2 15.6 3.2 23.6 3.2 38.4 0 69.6-24 69.6-53.6S300.4 214 262 214zm-24.8 48c-4.8 0-8.8-4-8.8-8.8s4-8.8 8.8-8.8 8.8 4 8.8 8.8-4 8.8-8.8 8.8zm49.6 0c-4.8 0-8.8-4-8.8-8.8s4-8.8 8.8-8.8 8.8 4 8.8 8.8-4 8.8-8.8 8.8z" fill="#fff"/>
  <text x="360" y="285" fill="#fff" font-family="Arial, Helvetica, sans-serif" font-size="92" font-weight="700">WeChat Pay</text>
</svg>
